# xmcd CD database file
#
# Track frame offsets:
#	150
#	21632
#	44187
#	68085
#	103130
#	125685
#	146355
#	170035
#
# Disc length: 2563 seconds
#
# Revision: 3
# Processed by: cddbd v1.5.2PL0 Copyright (c) Steve Scherf et al.
# Submitted via: CDex 1.51
#
DISCID=7e0a0108
DTITLE=Chet Baker - Chet Baker In Milan
DYEAR=1900
DGENRE=Jazz
TTITLE0=Lady Bird
TTITLE1=Cheryl Blues
TTITLE2=Tune Up
TTITLE3=Line For Lyons
TTITLE4=Pent Up House
TTITLE5=Look For The Silver Lining
TTITLE6=Indian Summer
TTITLE7=My Old Flame
EXTD=
EXTT0=
EXTT1=
EXTT2=
EXTT3=
EXTT4=
EXTT5=
EXTT6=
EXTT7=
PLAYORDER=
